HIERARCHY
ROOT Hips
{
	OFFSET 0.000000 0.000000 0.000000
	CHANNELS 6 Xposition Yposition Zposition Zrotation Yrotation Xrotation 
	JOINT LHipJoint
	{
		OFFSET 0.000000 0.000000 0.000000
		CHANNELS 3 Zrotation Yrotation Xrotation
		JOINT LeftUpLeg
		{
			OFFSET 1.363060 -1.794630 0.839290
			CHANNELS 3 Zrotation Yrotation Xrotation
			JOINT LeftLeg
			{
				OFFSET 2.448110 -6.726130 0.000000
				CHANNELS 3 Zrotation Yrotation Xrotation
				JOINT LeftFoot
				{
					OFFSET 2.562200 -7.039590 0.000000
					CHANNELS 3 Zrotation Yrotation Xrotation
					JOINT LeftToeBase
					{
						OFFSET 0.157640 -0.433110 2.322550
						CHANNELS 3 Zrotation Yrotation Xrotation
						End Site
						{
							OFFSET 0.000000 0.000000 0.000000
						}
					}
				}
			}
		}
	}
	JOINT RHipJoint
	{
		OFFSET 0.000000 0.000000 0.000000
		CHANNELS 3 Zrotation Yrotation Xrotation
		JOINT RightUpLeg
		{
			OFFSET -1.305520 -1.794630 0.839290
			CHANNELS 3 Zrotation Yrotation Xrotation
			JOINT RightLeg
			{
				OFFSET -2.542530 -6.985550 0.000000
				CHANNELS 3 Zrotation Yrotation Xrotation
				JOINT RightFoot
				{
					OFFSET -2.568260 -7.056230 0.000000
					CHANNELS 3 Zrotation Yrotation Xrotation
					JOINT RightToeBase
					{
						OFFSET -0.164730 -0.452590 2.363150
						CHANNELS 3 Zrotation Yrotation Xrotation
						End Site
						{
							OFFSET 0.000000 0.000000 0.000000
						}
					}
				}
			}
		}
	}
	JOINT LowerBack
	{
		OFFSET 0.000000 0.000000 0.000000
		CHANNELS 3 Zrotation Yrotation Xrotation
		JOINT Spine
		{
			OFFSET 0.028270 2.035590 -0.193380
			CHANNELS 3 Zrotation Yrotation Xrotation
			JOINT Spine1
			{
				OFFSET 0.056720 2.048850 -0.042750
				CHANNELS 3 Zrotation Yrotation Xrotation
				JOINT Neck
				{
					OFFSET 0.000000 0.000000 0.000000
					CHANNELS 3 Zrotation Yrotation Xrotation
					JOINT Neck1
					{
						OFFSET -0.054170 1.746240 0.172020
						CHANNELS 3 Zrotation Yrotation Xrotation
						JOINT Head
						{
							OFFSET 0.104070 1.761360 -0.123970
							CHANNELS 3 Zrotation Yrotation Xrotation
							End Site
							{
								OFFSET 0.000000 0.000000 0.000000
							}
						}
					}
				}
				JOINT LeftShoulder
				{
					OFFSET 0.000000 0.000000 0.000000
					CHANNELS 3 Zrotation Yrotation Xrotation
					JOINT LeftArm
					{
						OFFSET 3.362410 1.200890 -0.311210
						CHANNELS 3 Zrotation Yrotation Xrotation
						JOINT LeftForeArm
						{
							OFFSET 4.983000 -0.000000 -0.000000
							CHANNELS 3 Zrotation Yrotation Xrotation
							JOINT LeftHand
							{
								OFFSET 3.483560 -0.000000 -0.000000
								CHANNELS 3 Zrotation Yrotation Xrotation
								JOINT LeftFingerBase
								{
									OFFSET 0.000000 0.000000 0.000000
									CHANNELS 3 Zrotation Yrotation Xrotation
									JOINT LeftHandIndex1
									{
										OFFSET 0.715260 -0.000000 -0.000000
										CHANNELS 3 Zrotation Yrotation Xrotation
										End Site
										{
											OFFSET 0.000000 0.000000 0.000000
										}
									}
								}
								JOINT LThumb
								{
									OFFSET 0.000000 0.000000 0.000000
									CHANNELS 3 Zrotation Yrotation Xrotation
									End Site
									{
										OFFSET 0.000000 0.000000 0.000000
									}
								}
							}
						}
					}
				}
				JOINT RightShoulder
				{
					OFFSET 0.000000 0.000000 0.000000
					CHANNELS 3 Zrotation Yrotation Xrotation
					JOINT RightArm
					{
						OFFSET -3.136600 1.374050 -0.404650
						CHANNELS 3 Zrotation Yrotation Xrotation
						JOINT RightForeArm
						{
							OFFSET -5.241900 -0.000000 -0.000000
							CHANNELS 3 Zrotation Yrotation Xrotation
							JOINT RightHand
							{
								OFFSET -3.444170 -0.000000 -0.000000
								CHANNELS 3 Zrotation Yrotation Xrotation
								JOINT RightFingerBase
								{
									OFFSET 0.000000 0.000000 0.000000
									CHANNELS 3 Zrotation Yrotation Xrotation
									JOINT RightHandIndex1
									{
										OFFSET -0.622530 -0.000000 -0.000000
										CHANNELS 3 Zrotation Yrotation Xrotation
										End Site
										{
											OFFSET 0.000000 0.000000 0.000000
										}
									}
								}
								JOINT RThumb
								{
									OFFSET 0.000000 0.000000 0.000000
									CHANNELS 3 Zrotation Yrotation Xrotation
									End Site
									{
										OFFSET 0.000000 0.000000 0.000000
									}
								}
							}
						}
					}
				}
			}
		}
	}
}
MOTION
Frames: 9
Frame Time: 0.008333
2.943883 17.806135 37.227395 -126.785959 -87.337998 144.985197 9.154690 -1.949980 -4.663186 -22.321456 -16.362162 -15.341345 -6.790235 7.163922 10.560386 -4.265773 18.670333 17.177193 0.094500 -1.982900 -5.458300 -11.124246 2.971770 -4.940510 25.047973 23.075405 -18.904754 4.541615 -13.577135 23.332240 7.060988 -21.620525 2.227330 -0.038200 -1.261100 3.467600 -0.063397 0.938531 -14.653248 1.055755 0.284710 -5.430712 0.089844 0.241071 3.697699 -2.024747 -2.194582 -18.847976 9.805334 -2.835459 9.873117 1.908100 -0.344000 12.565500 -6.382739 -7.968696 -2.794003 -73.210429 2.635221 68.516527 12.946194 -17.539799 -3.632831 0.689887 -4.517669 -40.216198 10.227308 13.915685 3.904900 -7.125000 0.000000 0.000000 -14.735700 47.578100 -0.957100 8.592056 10.612388 -1.657717 74.673132 -4.527904 19.769232 -7.537591 9.979158 -2.170019 -1.302850 4.944808 -22.747273 8.093838 -33.639752 -4.710600 7.125000 0.000000 0.000000 50.212900 -61.569900 -23.412700 
2.964912 17.801194 37.225557 -125.235780 -87.380252 143.524394 9.208378 -1.987811 -4.673423 -22.284584 -16.273740 -15.723532 -6.780132 7.310768 10.820391 -4.145709 18.405961 17.232262 0.101400 -2.053200 -5.652600 -11.160336 3.035956 -4.970313 25.000455 22.939356 -19.268840 4.502794 -13.725601 23.588100 7.006890 -21.499001 2.233868 -0.036700 -1.236600 3.400100 -0.218089 0.866647 -14.444668 1.059596 0.231834 -5.442502 0.181046 0.217191 3.657291 -1.936116 -2.249214 -19.105088 10.020220 -2.905646 9.614435 1.996200 -0.340600 12.492100 -6.353676 -8.075011 -2.767694 -73.017831 2.175030 69.289829 13.176740 -17.779371 -3.748218 0.756773 -4.569335 -39.774176 9.939449 14.411003 3.920500 -7.125000 0.000000 0.000000 -15.262100 48.115500 -1.199200 8.569657 10.765498 -1.632161 74.568799 -4.070719 19.951659 -7.676000 10.099572 -2.190154 -1.388261 4.901636 -22.219988 9.147131 -33.108777 -5.406200 7.125000 0.000000 0.000000 50.586500 -60.910100 -22.848800 
2.989159 17.795333 37.222914 -123.928070 -87.439164 142.320377 9.266805 -2.035888 -4.687730 -22.262900 -16.173244 -16.144325 -6.770803 7.468149 11.095687 -4.014436 18.119251 17.292490 0.109300 -2.131400 -5.869100 -11.205468 3.101923 -5.001190 24.923749 22.782037 -19.698532 4.455666 -13.901264 23.892183 6.932083 -21.329737 2.259332 -0.035300 -1.212500 3.333600 -0.424180 0.763786 -14.210814 1.075336 0.140697 -5.457456 0.335865 0.178851 3.596876 -1.867560 -2.285946 -19.354074 10.252567 -2.941237 9.336038 2.092100 -0.323000 12.401600 -6.316406 -8.186401 -2.745723 -72.876041 1.702971 69.885301 13.407646 -18.014514 -3.861821 0.808771 -4.606231 -39.089102 9.605933 14.834389 3.891900 -7.125000 0.000000 0.000000 -15.825800 48.560300 -1.422700 8.555536 10.931268 -1.598171 74.383779 -3.582531 20.250569 -7.859510 10.264280 -2.219355 -1.414479 4.871807 -21.616882 9.762845 -32.603061 -5.782200 7.125000 0.000000 0.000000 50.550000 -60.385200 -22.191700 
3.014555 17.787749 37.219122 -123.043912 -87.498670 141.528130 9.328794 -2.089031 -4.704734 -22.258213 -16.070486 -16.567142 -6.758701 7.637651 11.398315 -3.890869 17.838127 17.323280 0.117200 -2.207100 -6.078300 -11.261584 3.161927 -5.032430 24.848488 22.593304 -20.164783 4.397741 -14.102347 24.256237 6.829869 -21.094710 2.305576 -0.033300 -1.178300 3.239600 -0.668908 0.643191 -13.942278 1.100096 0.027338 -5.472316 0.541584 0.133761 3.524488 -1.801284 -2.301946 -19.589262 10.494064 -2.945844 9.039516 2.185200 -0.292500 12.290400 -6.269525 -8.302678 -2.725967 -72.772939 1.226603 70.318264 13.642139 -18.251397 -3.975651 0.850490 -4.618235 -38.168282 9.179843 15.138091 3.789900 -7.125000 0.000000 0.000000 -16.455500 48.853300 -1.603600 8.550631 11.105831 -1.555009 74.143268 -3.040407 20.405545 -8.066563 10.446735 -2.258801 -1.415211 4.861892 -20.692698 10.355515 -32.200561 -6.149000 7.125000 0.000000 0.000000 50.645900 -59.945000 -21.708300 
3.040411 17.777981 37.214870 -122.844301 -87.550813 141.388237 9.393995 -2.143988 -4.723915 -22.278294 -15.971548 -16.966060 -6.741121 7.820465 11.737118 -3.790329 17.587878 17.300315 0.124800 -2.277100 -6.272000 -11.330525 3.211273 -5.062001 24.784052 22.385843 -20.643640 4.327774 -14.327208 24.686854 6.690060 -20.767076 2.364788 -0.032400 -1.162600 3.196200 -0.940013 0.513648 -13.628228 1.129590 -0.094536 -5.485132 0.778121 0.086056 3.441772 -1.743167 -2.300973 -19.809492 10.756020 -2.924355 8.728941 2.289400 -0.250500 12.163000 -6.215673 -8.418668 -2.707541 -72.683956 0.751059 70.631111 13.890500 -18.503994 -4.095990 0.886759 -4.611273 -37.074615 8.677656 15.344456 3.628300 -7.125000 0.000000 0.000000 -17.137100 49.023400 -1.747100 8.545524 11.281640 -1.505206 73.834283 -2.496773 20.848047 -8.332517 10.698616 -2.318752 -1.394389 4.868786 -19.890099 10.690327 -31.950060 -6.351000 7.125000 0.000000 0.000000 50.682300 -59.684800 -21.408000 
3.065922 17.765685 37.210273 -123.379286 -87.598675 141.947866 9.464626 -2.200416 -4.744554 -22.328345 -15.890985 -17.336847 -6.717293 8.019875 12.117180 -3.717853 17.377667 17.212615 0.131200 -2.335000 -6.432500 -11.409537 3.248622 -5.090989 24.728824 22.138821 -21.136236 4.243732 -14.574677 25.186600 6.509959 -20.341137 2.453247 -0.031700 -1.148600 3.157600 -1.234513 0.383331 -13.268729 1.159357 -0.211968 -5.495086 1.027379 0.040815 3.352274 -1.675643 -2.289524 -20.019086 11.033486 -2.892762 8.406593 2.395900 -0.203100 12.023100 -6.154509 -8.536238 -2.688863 -72.589051 0.272155 70.861057 14.163753 -18.785371 -4.230106 0.924793 -4.591852 -35.886203 8.109082 15.484695 3.420500 -7.125000 0.000000 0.000000 -17.868200 49.108400 -1.864400 8.537780 11.458420 -1.449656 73.484133 -1.934069 21.340015 -8.636757 10.996241 -2.401748 -1.406901 4.892244 -18.970789 11.336999 -31.847674 -6.793100 7.125000 0.000000 0.000000 51.243500 -59.460900 -21.446600 
3.091778 17.751321 37.205217 -124.593685 -87.631648 143.149319 9.539928 -2.254190 -4.765692 -22.400795 -15.792439 -17.689620 -6.686772 8.233184 12.540003 -3.656723 17.172037 17.081581 0.136700 -2.383000 -6.565300 -11.498731 3.277549 -5.119091 24.689101 21.869353 -21.640397 4.145392 -14.846265 25.758549 6.284935 -19.805328 2.561052 -0.032600 -1.164600 3.201900 -1.536872 0.270789 -12.856147 1.179284 -0.297737 -5.502617 1.248077 0.008105 3.246178 -1.580222 -2.277627 -20.222067 11.335811 -2.874062 8.080804 2.511600 -0.157200 11.884700 -6.089572 -8.656096 -2.667425 -72.430321 -0.205249 71.077279 14.480133 -19.116188 -4.389164 0.973161 -4.562100 -34.698356 7.467096 15.567526 3.168400 -7.125000 0.000000 0.000000 -18.655800 49.119100 -1.956900 8.515382 11.636039 -1.396688 73.150599 -1.374865 21.927174 -8.988074 11.350118 -2.503898 -1.394241 4.932326 -18.019732 11.814090 -31.893637 -7.140300 7.125000 0.000000 0.000000 51.819800 -59.388600 -21.682600 
3.118898 17.735003 37.199701 -126.101878 -87.658607 144.633654 9.622013 -2.309371 -4.786811 -22.479510 -15.705924 -18.049816 -6.651445 8.461686 12.993877 -3.604599 16.975674 16.919506 0.140300 -2.414400 -6.652400 -11.597020 3.304754 -5.150095 24.650233 21.561871 -22.190794 4.031838 -15.145608 26.399765 6.019302 -19.173617 2.704842 -0.034000 -1.191000 3.274400 -1.843762 0.167371 -12.408796 1.195511 -0.371050 -5.509929 1.460243 -0.019226 3.123305 -1.471804 -2.262195 -20.415703 11.657644 -2.857204 7.747710 2.634200 -0.110500 11.742200 -6.017410 -8.777265 -2.645287 -72.235614 -0.683222 71.267694 14.845150 -19.501842 -4.578318 1.035890 -4.524012 -33.567551 6.755365 15.600263 2.877400 -7.125000 0.000000 0.000000 -19.495800 49.065300 -2.024600 8.483642 11.815554 -1.343275 72.798936 -0.814185 22.626018 -9.382714 11.752771 -2.621393 -1.352760 4.981116 -17.020821 12.109062 -32.017800 -7.373700 7.125000 0.000000 0.000000 52.308800 -59.416900 -21.998900 
3.148316 17.717191 37.194760 -127.650545 -87.687585 146.172556 9.712777 -2.370599 -4.808405 -22.555724 -15.638781 -18.451920 -6.613003 8.709269 13.473085 -3.554971 16.786435 16.749690 0.145400 -2.457100 -6.770700 -11.702341 3.336426 -5.185994 24.590614 21.213550 -22.815844 3.904975 -15.471581 27.094235 5.715895 -18.457036 2.905444 -0.036400 -1.230800 3.384200 -2.149196 0.065898 -11.942759 1.210810 -0.445405 -5.519978 1.665496 -0.047050 2.979744 -1.347495 -2.240200 -20.603873 11.992305 -2.838666 7.410804 2.757500 -0.061700 11.599800 -5.934303 -8.899191 -2.624653 -72.012214 -1.156286 71.427815 15.271370 -19.956539 -4.807448 1.114079 -4.493231 -32.584097 6.030727 15.659135 2.585100 -7.125000 0.000000 0.000000 -20.358300 49.039200 -2.107500 8.444642 11.997983 -1.289414 72.415036 -0.249091 23.446252 -9.819453 12.200944 -2.752951 -1.288909 5.031375 -16.003084 12.254233 -32.167459 -7.506600 7.125000 0.000000 0.000000 52.676600 -59.498600 -22.316900 
